<svg width="200" height="200" viewBox="0 0 200 200" fill="none" xmlns="http://www.w3.org/2000/svg">
<circle cx="100" cy="100" r="100" fill="#1880DF"/>
<path d="M68.5625 146H51.5V79.0625H55.625L61.25 87C64 84.5 67.125 82.5833 70.625 81.25C74.125 79.875 77.75 79.1875 81.5 79.1875H96.5625V96.1875H81.5C79.7083 96.1875 78.0208 96.5208 76.4375 97.1875C74.8542 97.8542 73.4792 98.7708 72.3125 99.9375C71.1458 101.104 70.2292 102.479 69.5625 104.062C68.8958 105.646 68.5625 107.333 68.5625 109.125V146ZM138.062 146C133.938 146 130.062 145.229 126.438 143.688C122.812 142.104 119.625 139.958 116.875 137.25C114.167 134.5 112.021 131.312 110.438 127.688C108.896 124.062 108.125 120.188 108.125 116.062V96.1875H99.8125V79.1875H108.125V52.4375H125.125V79.1875H151V96.1875H125.125V116.062C125.125 117.854 125.458 119.542 126.125 121.125C126.792 122.667 127.708 124.021 128.875 125.188C130.042 126.354 131.417 127.292 133 128C134.583 128.667 136.271 129 138.062 129H151V146H138.062Z" fill="white"/>
</svg>
