<svg width="199" height="188" viewBox="0 0 199 188" fill="none" xmlns="http://www.w3.org/2000/svg">
<path d="M34.125 188H0V54.125H8.25L19.5 70C25 65 31.25 61.1667 38.25 58.5C45.25 55.75 52.5 54.375 60 54.375H90.125V88.375H60C56.4167 88.375 53.0417 89.0417 49.875 90.375C46.7083 91.7083 43.9583 93.5417 41.625 95.875C39.2917 98.2083 37.4583 100.958 36.125 104.125C34.7917 107.292 34.125 110.667 34.125 114.25V188ZM173.125 188C164.875 188 157.125 186.458 149.875 183.375C142.625 180.208 136.25 175.917 130.75 170.5C125.333 165 121.042 158.625 117.875 151.375C114.792 144.125 113.25 136.375 113.25 128.125V88.375H96.625V54.375H113.25V0.875H147.25V54.375H199V88.375H147.25V128.125C147.25 131.708 147.917 135.083 149.25 138.25C150.583 141.333 152.417 144.042 154.75 146.375C157.083 148.708 159.833 150.583 163 152C166.167 153.333 169.542 154 173.125 154H199V188H173.125Z" fill="white"/>
</svg>
